<?xml version="1.0" encoding="UTF-8" standalone="no"?>
<svg
   xmlns:dc="http://purl.org/dc/elements/1.1/"
   xmlns:cc="http://creativecommons.org/ns#"
   xmlns:rdf="http://www.w3.org/1999/02/22-rdf-syntax-ns#"
   xmlns:svg="http://www.w3.org/2000/svg"
   xmlns="http://www.w3.org/2000/svg"
   xmlns:sodipodi="http://sodipodi.sourceforge.net/DTD/sodipodi-0.dtd"
   xmlns:inkscape="http://www.inkscape.org/namespaces/inkscape"
   inkscape:version="1.0 (4035a4fb49, 2020-05-01)"
   sodipodi:docname="aisview-toggled.svg"
   id="svg10"
   version="1.1"
   height="32"
   width="32">
  <metadata
     id="metadata16">
    <rdf:RDF>
      <cc:Work
         rdf:about="">
        <dc:format>image/svg+xml</dc:format>
        <dc:type
           rdf:resource="http://purl.org/dc/dcmitype/StillImage" />
        <dc:title></dc:title>
      </cc:Work>
    </rdf:RDF>
  </metadata>
  <defs
     id="defs14">
    <filter
       height="1.0000024"
       y="-1.1995009e-06"
       width="1.0000024"
       x="-1.2004995e-06"
       id="filter2415"
       style="color-interpolation-filters:sRGB"
       inkscape:collect="always">
      <feGaussianBlur
         id="feGaussianBlur2417"
         stdDeviation="1.596777e-05"
         inkscape:collect="always" />
    </filter>
  </defs>
  <sodipodi:namedview
     inkscape:current-layer="svg10"
     inkscape:window-maximized="1"
     inkscape:window-y="-9"
     inkscape:window-x="-9"
     inkscape:cy="17.447619"
     inkscape:cx="16"
     inkscape:zoom="26.25"
     showgrid="false"
     id="namedview12"
     inkscape:window-height="1011"
     inkscape:window-width="1920"
     inkscape:pageshadow="2"
     inkscape:pageopacity="0"
     guidetolerance="10"
     gridtolerance="10"
     objecttolerance="10"
     borderopacity="1"
     bordercolor="#666666"
     pagecolor="#ffffff" />
  <circle
     style="display:inline;fill:#ffffff"
     id="circle2"
     fill="transparent"
     stroke-width="2"
     stroke="#008000"
     r="15"
     cy="16"
     cx="16" />
  <circle
     style="display:inline"
     id="circle4"
     fill="transparent"
     stroke-width="2"
     stroke="#008000"
     r="5"
     cy="16"
     cx="16" />
  <polygon
     style="display:inline"
     id="polygon6"
     fill="#008000"
     stroke-width="1"
     stroke="#008000"
     points="8,14 8,7 25,11 " />
  <polygon
     style="display:inline"
     id="polygon8"
     fill="#ff0000"
     stroke-width="1"
     stroke="#ff0000"
     points="24,18 24,25 7,21 " />
  <path
     id="path2413"
     d="M 15.27619,31.958808 C 11.233381,31.779509 7.3716857,30.041899 4.5436343,27.129584 2.0510432,24.562725 0.54179531,21.349184 0.10738954,17.683785 c -0.09271412,-0.782297 -0.09271412,-2.585273 0,-3.36757 C 0.49204019,11.070636 1.7085256,8.2023646 3.7309328,5.7724994 6.6038895,2.3207225 10.847092,0.22205353 15.314286,0.04342418 c 1.994084,-0.07973728 3.827437,0.17419323 5.680953,0.78684622 2.469486,0.8162528 4.66253,2.1879582 6.463997,4.043101 2.217437,2.2835071 3.726288,5.2301506 4.272423,8.3436366 0.179754,1.024771 0.226352,1.584877 0.228363,2.744897 0.002,1.144498 -0.03065,1.585578 -0.191679,2.590476 -0.86836,5.419061 -4.521014,10.054713 -9.601419,12.185343 -1.6445,0.689674 -3.605748,1.140716 -5.243594,1.205906 -0.277355,0.01104 -0.615711,0.02543 -0.751901,0.03199 -0.136191,0.0066 -0.539048,-10e-4 -0.895239,-0.01681 z"
     style="display:none;fill:#fbfbfb;fill-opacity:0;stroke-width:0.0381552;filter:url(#filter2415)" />
  <path
     id="path2419"
     d="M 15.27619,31.958808 C 11.233381,31.779509 7.3716857,30.041899 4.5436343,27.129584 2.0510432,24.562725 0.54179531,21.349184 0.10738954,17.683785 c -0.09271412,-0.782297 -0.09271412,-2.585273 0,-3.36757 C 0.49204019,11.070636 1.7085256,8.2023646 3.7309328,5.7724994 6.6038895,2.3207225 10.847092,0.22205353 15.314286,0.04342418 c 1.994084,-0.07973728 3.827437,0.17419323 5.680953,0.78684622 2.469486,0.8162528 4.66253,2.1879582 6.463997,4.043101 2.217437,2.2835071 3.726288,5.2301506 4.272423,8.3436366 0.179754,1.024771 0.226352,1.584877 0.228363,2.744897 0.002,1.144498 -0.03065,1.585578 -0.191679,2.590476 -0.86836,5.419061 -4.521014,10.054713 -9.601419,12.185343 -1.6445,0.689674 -3.605748,1.140716 -5.243594,1.205906 -0.277355,0.01104 -0.615711,0.02543 -0.751901,0.03199 -0.136191,0.0066 -0.539048,-10e-4 -0.895239,-0.01681 z"
     style="display:none;fill:#fbfbfb;fill-opacity:0;stroke-width:0.0381552" />
  <path
     id="path2421"
     d="M 15.27619,31.958808 C 11.233381,31.779509 7.3716857,30.041899 4.5436343,27.129584 2.0510432,24.562725 0.54179531,21.349184 0.10738954,17.683785 c -0.09271412,-0.782297 -0.09271412,-2.585273 0,-3.36757 C 0.49204019,11.070636 1.7085256,8.2023646 3.7309328,5.7724994 6.6038895,2.3207225 10.847092,0.22205353 15.314286,0.04342418 c 1.994084,-0.07973728 3.827437,0.17419323 5.680953,0.78684622 2.469486,0.8162528 4.66253,2.1879582 6.463997,4.043101 2.217437,2.2835071 3.726288,5.2301506 4.272423,8.3436366 0.179754,1.024771 0.226352,1.584877 0.228363,2.744897 0.002,1.144498 -0.03065,1.585578 -0.191679,2.590476 -0.86836,5.419061 -4.521014,10.054713 -9.601419,12.185343 -1.6445,0.689674 -3.605748,1.140716 -5.243594,1.205906 -0.277355,0.01104 -0.615711,0.02543 -0.751901,0.03199 -0.136191,0.0066 -0.539048,-10e-4 -0.895239,-0.01681 z"
     style="display:none;fill:#fbfbfb;fill-opacity:0;stroke-width:0.0381552" />
</svg>
